# xmcd
#
# Track frame offsets:
#	150
#	24807
#	34510
#	48215
#	63290
#	75697
#	85400
#	99105
#	114180
#	126587
#	128729
#	130847
#	132965
#	135052
#	137139
#	139209
#	151860
#	154508
#	157088
#	159668
#	168802
#	181395
#	193401
#
# Disc length: 2777 seconds
#
# Revision: 1
# Processed by: cddbd v1.5.2PL0 Copyright (c) Steve Scherf et al.
# Submitted via: audiograbber 1.83.01
#
DISCID=260ad717
DTITLE=Richard Reed - Hope Notes Cochlear
DYEAR=2010
DGENRE=Acoustic
TTITLE0=The Thing with Scales
TTITLE1=Bayou Boys
TTITLE2=Waltzing Miranda
TTITLE3=The Man Upstairs
TTITLE4=Someone Else's Heartache
TTITLE5=Bayou Boys without Vocals
TTITLE6=Waltzing Miranda without Vocals
TTITLE7=The Man Upstairs without Vocals
TTITLE8=Someone Else's Heartache without Vocals
TTITLE9=Middle C Melody
TTITLE10=The Low Notes
TTITLE11=Both Hands Now
TTITLE12=Stereo Melody Right
TTITLE13=Stereo Melody Left
TTITLE14=Swing Both Hands
TTITLE15=Little Star Blues
TTITLE16=A Simple Fur E Melody
TTITLE17=A Higher Fur E Melody
TTITLE18=A Lower Fur E Melody
TTITLE19=Surfer Elise
TTITLE20=Canciones en Espanol
TTITLE21=Guitar String Theory
TTITLE22=Blues Downtown
EXTD=Hope Notes is a program for cochlear implant and hearing aid users designe
EXTD=d to help improve music perception and appreciation using original songs, 
EXTD=traditional Folk, Blues and Country styles ad some familiar tunes played in 
EXTD=unexpected ways.
EXTT0=
EXTT1=
EXTT2=
EXTT3=
EXTT4=
EXTT5=
EXTT6=
EXTT7=
EXTT8=
EXTT9=
EXTT10=
EXTT11=
EXTT12=
EXTT13=
EXTT14=
EXTT15=
EXTT16=
EXTT17=
EXTT18=
EXTT19=
EXTT20=
EXTT21=
EXTT22=
PLAYORDER=
